<?xml version="1.0" encoding="UTF-8" standalone="no"?>
<!-- Created with Inkscape (http://www.inkscape.org/) -->

<svg
   xmlns:ns1="https://launchpad.net/jessyink"
   xmlns:dc="http://purl.org/dc/elements/1.1/"
   xmlns:cc="http://creativecommons.org/ns#"
   xmlns:rdf="http://www.w3.org/1999/02/22-rdf-syntax-ns#"
   xmlns:svg="http://www.w3.org/2000/svg"
   xmlns="http://www.w3.org/2000/svg"
   xmlns:xlink="http://www.w3.org/1999/xlink"
   xmlns:sodipodi="http://sodipodi.sourceforge.net/DTD/sodipodi-0.dtd"
   xmlns:inkscape="http://www.inkscape.org/namespaces/inkscape"
   mlns="http://www.w3.org/2000/svg"
   width="1000mm"
   height="1000mm"
   viewBox="0 0 1000 1000"
   version="1.1"
   id="svg8"
   inkscape:version="0.92.5 (2060ec1f9f, 2020-04-08)"
   sodipodi:docname="romaindeville.fr_logo.dark.svg">
  <defs
     id="defs2" />
  <sodipodi:namedview
     id="base"
     pagecolor="#ffffff"
     bordercolor="#666666"
     borderopacity="1.0"
     inkscape:pageopacity="0.0"
     inkscape:pageshadow="2"
     inkscape:zoom="0.064125745"
     inkscape:cx="168.52137"
     inkscape:cy="842.90084"
     inkscape:document-units="mm"
     inkscape:current-layer="layer1"
     showgrid="false"
     showguides="true"
     inkscape:guide-bbox="true"
     inkscape:window-width="1007"
     inkscape:window-height="648"
     inkscape:window-x="1029"
     inkscape:window-y="688"
     inkscape:window-maximized="0" />
  <metadata
     id="metadata5">
    <rdf:RDF>
      <cc:Work
         rdf:about="">
        <dc:format>image/svg+xml</dc:format>
        <dc:type
           rdf:resource="http://purl.org/dc/dcmitype/StillImage" />
        <dc:title />
      </cc:Work>
    </rdf:RDF>
  </metadata>
  <g
     inkscape:label="Layer 1"
     inkscape:groupmode="layer"
     id="layer1"
     transform="translate(-30.395387,963.03085)"
     ns1:transitionIn="name:pop;length:10000">
    <path
       sodipodi:nodetypes="ccccccccccccccccccccccccccccccccccc"
       inkscape:connector-curvature="0"
       id="root-fg"
       d="m 170.73057,-668.05156 -22.7334,109.27099 H 81.982027 l -16.88431,77.17503 h 67.243013 l -16.59008,80.78353 H 47.279749 l -16.88431,77.14963 h 69.698771 l -22.41172,110.62472 h 74.61421 l 22.73341,-110.62472 c 24.11132,0.004 48.22913,6.5e-4 72.34282,0 h 0.18037 l -22.41565,110.62472 h 74.61813 l 22.7334,-110.62472 h 72.33892 c 15.99738,-77.15111 -5.48836,28.55274 15.99772,-77.14963 h -72.68413 l 16.27233,-80.78353 h 72.81752 l 15.67996,-77.17503 h -72.52318 c -74.9359,0 0,0 -74.9359,0 h -72.51936 l 22.41173,-109.27099 z m 36.2283,186.44602 h 72.81751 0.0201 l -16.58616,80.78353 -72.52323,4.9e-4 c 5.42382,-26.92801 10.84813,-53.85605 16.27227,-80.78402 z"
       style="font-style:normal;font-variant:normal;font-weight:normal;font-stretch:normal;font-size:10.58333302px;line-height:1.25;font-family:Audiowide;-inkscape-font-specification:Audiowide;letter-spacing:0px;word-spacing:0px;fill:#89302e;fill-opacity:1;stroke:none;stroke-width:16.32680893" />
    <path
       style="font-style:normal;font-variant:normal;font-weight:normal;font-stretch:normal;font-size:10.58333302px;line-height:1.25;font-family:Audiowide;-inkscape-font-specification:Audiowide;letter-spacing:0px;word-spacing:0px;fill:#400302;fill-opacity:1;stroke:none;stroke-width:16.32680893"
       d="m 194.0328,-693.18008 -23.30223,25.12852 h 74.61422 l -22.41173,109.27099 c 219.97844,0 0,0 219.97854,0 l -15.67996,77.17503 23.30222,-25.12853 15.67997,-77.17502 c -219.98247,0 0,0 -219.98247,0 l 22.41565,-109.27099 z m -88.74854,109.27099 -23.302233,25.12852 h 66.015143 l 5.23319,-25.12852 z m 101.67461,102.30355 -16.27233,80.78353 h 72.52329 0.15686 l 5.00961,-25.12852 h -54.38753 l 11.21959,-55.65501 z m 147.45525,0 -16.27233,80.78353 h 72.68413 l -15.99772,77.14963 c 23.30181,-25.1281 3.7e-4,0.004 23.30223,-25.12429 l 15.99772,-77.15386 h -72.68413 l 11.2196,-55.65501 z m -283.832142,55.65501 -23.302229,25.12852 h 68.470901 l 5.1665,-25.12852 z m 104.448132,102.27815 -22.73341,110.62472 23.30223,-25.12852 17.5669,-85.4962 z m 147.45917,0 -22.7334,110.62472 23.30222,-25.12852 17.56692,-85.4962 z"
       id="root-bg"
       inkscape:connector-curvature="0"
       sodipodi:nodetypes="cccccccccccccccccccccccccccccccccccccccccccccccc" />
    <path
       id="letter-r-1-bg"
       d="m 329.72541,-358.85987 -29.96919,145.81169 23.30185,-25.12801 29.96919,-145.8117 z"
       style="font-style:normal;font-variant:normal;font-weight:normal;font-stretch:normal;font-size:10.58333302px;line-height:1.25;font-family:Audiowide;-inkscape-font-specification:Audiowide;letter-spacing:0px;word-spacing:0px;fill:#012626;fill-opacity:1;stroke:none;stroke-width:16.32680893"
       inkscape:connector-curvature="0"
       sodipodi:nodetypes="ccccc" />
    <path
       id="letter-r-1-fg"
       d="m 250.49007,-358.85987 -30.5836,145.81169 h 79.84975 l 29.96919,-145.81169 z"
       style="font-style:normal;font-variant:normal;font-weight:normal;font-stretch:normal;font-size:10.58333302px;line-height:1.25;font-family:Audiowide;-inkscape-font-specification:Audiowide;letter-spacing:0px;word-spacing:0px;fill:#1c5252;fill-opacity:1;stroke:none;stroke-width:16.32680893"
       inkscape:connector-curvature="0"
       sodipodi:nodetypes="ccccc" />
    <path
       style="font-style:normal;font-variant:normal;font-weight:normal;font-stretch:normal;font-size:10.58333302px;line-height:1.25;font-family:Audiowide;-inkscape-font-specification:Audiowide;letter-spacing:0px;word-spacing:0px;fill:#012626;fill-opacity:1;stroke:none;stroke-width:16.32680893"
       d="m 452.56083,-383.98798 -23.30186,25.12811 h 123.1766 l 126.56721,145.81169 23.30185,-25.12811 -126.5672,-145.81169 z"
       id="letter-r-2-bg"
       inkscape:connector-curvature="0" />
    <path
       id="letter-r-2-fg"
       d="m 429.25889,-358.85987 126.29409,145.81169 H 679.00273 L 552.43557,-358.85987 Z"
       style="font-style:normal;font-variant:normal;font-weight:normal;font-stretch:normal;font-size:10.58333302px;line-height:1.25;font-family:Audiowide;-inkscape-font-specification:Audiowide;letter-spacing:0px;word-spacing:0px;fill:#1c5252;fill-opacity:1;stroke:none;stroke-width:16.32680893"
       inkscape:connector-curvature="0"
       sodipodi:nodetypes="ccccc" />
    <path
       inkscape:connector-curvature="0"
       style="font-style:normal;font-variant:normal;font-weight:normal;font-stretch:normal;font-size:10.58333302px;line-height:1.25;font-family:Audiowide;-inkscape-font-specification:Audiowide;letter-spacing:0px;word-spacing:0px;fill:#1d3b02;fill-opacity:1;stroke:none;stroke-width:16.32680893"
       d="m 381.02219,-713.03086 c -5.73212,0 -11.26736,1.10501 -16.63443,3.31264 -5.36699,2.20763 -33.61388,30.43023 -38.11579,34.40387 4.50191,-3.97364 9.44695,-7.06832 14.81393,-9.27581 5.36712,-2.20763 10.90231,-3.31263 16.63443,-3.31263 h 303.08319 c 17.81043,0 32.13197,3.53629 42.96276,10.60091 10.87611,6.84366 19.02078,15.56212 24.41687,26.15875 5.64638,10.37578 8.84636,21.62392 9.62564,33.7659 0.98418,12.14188 0.40513,23.51282 -1.77505,34.10941 l -11.30959,54.96771 c -4.03976,19.64783 -9.88668,37.20764 -17.56739,52.66102 -6.197,12.4683 -13.26056,23.74422 -21.11728,33.91315 6.11637,-5.4942 11.98028,-11.46364 17.54463,-17.98724 10.2302,-11.92112 19.19387,-25.6006 26.8745,-41.05398 7.68071,-15.45338 13.52763,-33.01324 17.5674,-52.66107 l 11.30959,-54.96771 c 2.17929,-10.59658 2.75923,-21.96748 1.77505,-34.10941 -0.77942,-12.14197 -3.97944,-23.39012 -9.62565,-33.76589 -5.39609,-10.59664 -13.54076,-19.3151 -24.41686,-26.15876 -10.8308,-7.06451 -25.15234,-10.6009 -42.96277,-10.6009 z m -1.38799,111.23602 -47.3091,233.44101 23.30185,-25.12811 42.21184,-208.3129 z m 253.63505,104.41411 c -5.94591,4.3901 -12.30249,8.26957 -19.43334,11.18988 -8.91488,3.53249 -18.48223,5.74231 -28.69495,6.62555 H 404.57447 l -23.30186,25.12812 h 180.5665 c 10.21272,-0.88325 19.78007,-3.09325 28.69495,-6.62561 9.16495,-3.7533 17.34586,-8.7139 24.55341,-14.89527 7.17946,-5.98691 13.22282,-13.15727 18.18178,-21.42267 z"
       id="letter-d-bg" />
    <path
       inkscape:connector-curvature="0"
       id="letter-d-fg"
       style="font-style:normal;font-variant:normal;font-weight:normal;font-stretch:normal;font-size:10.58333302px;line-height:1.25;font-family:Audiowide;-inkscape-font-specification:Audiowide;letter-spacing:0px;word-spacing:0px;fill:#617f2b;fill-opacity:1;stroke:none;stroke-width:16.32680893"
       d="m 724.72398,-528.28174 c -4.03977,19.64783 -9.8992,37.19844 -17.57991,52.65181 -7.68062,15.45338 -16.63601,29.14065 -26.86622,41.06177 -9.97995,11.7004 -20.84778,21.7451 -32.60358,30.13401 -11.75579,8.389 -23.72846,15.34306 -35.91782,20.8621 -11.93925,5.29812 -23.78827,9.1616 -35.54693,11.58995 -11.55393,2.42796 -22.24413,3.64219 -32.07062,3.64219 H 421.00127 363.57791 l 17.70008,-86.09727 h 180.56099 c 10.21272,-0.88325 19.77654,-3.0904 28.69142,-6.62285 9.16496,-3.75331 17.35128,-8.72012 24.55883,-14.90149 7.41232,-6.18114 13.6412,-13.57682 18.68664,-22.18659 5.09075,-8.83048 8.79352,-18.87518 11.10808,-30.13401 l 11.16467,-54.30755 c 0.99828,-4.8566 1.13302,-8.49932 0.40513,-10.92771 -0.47558,-2.64925 -1.52538,-4.52543 -3.1419,-5.62944 -1.36552,-1.32439 -3.04898,-2.09746 -5.05094,-2.3178 -1.79707,-0.22318 -3.51443,-0.3324 -5.15196,-0.3324 h -263.4721 l -47.32201,233.45791 h -79.83989 l 56.10403,-276.17538 c 1.22505,-5.96075 3.40611,-11.58999 6.54276,-16.88836 3.13617,-5.29813 6.85312,-9.93425 11.15027,-13.90799 4.50192,-3.97364 9.43643,-7.06451 14.80341,-9.272 5.36707,-2.20763 10.91662,-3.31169 16.64874,-3.31169 h 303.08456 c 17.81042,0 32.13104,3.53202 42.96183,10.59654 10.87611,6.84366 19.01219,15.56374 24.40828,26.16037 5.64638,10.37577 8.85896,21.63465 9.63829,33.77663 0.98418,12.14192 0.3875,23.51116 -1.79179,34.10774 z"
       sodipodi:nodetypes="cccscccccccccccccccscccccccssccccc" />
    <g
       id="underscore"
       transform="matrix(44.03497,0,0,47.486169,-1312.3362,-1968.539)">
      <g
         transform="matrix(1,0,-0.22169466,1,10.850587,-10.033015)"
         id="underscore-fg-transform"
         style="font-style:normal;font-weight:normal;font-size:11.86558533px;line-height:1.25;font-family:sans-serif;letter-spacing:0px;word-spacing:0px;fill:#9e9e9e;fill-opacity:1;stroke:none;stroke-width:0.29663962"
         aria-label="#_">
        <path
           inkscape:connector-curvature="0"
           id="underscore-fg"
           style="font-style:normal;font-variant:normal;font-weight:normal;font-stretch:normal;font-family:Audiowide;-inkscape-font-specification:Audiowide;fill:#9e9e9e;fill-opacity:1;stroke-width:0.29663962"
           d="m 51.942566,47.00148 h -6.622248 v -1.349942 h 6.622248 z" />
      </g>
      <g
         transform="matrix(1,0,-0.22169466,1,11.379495,-10.561928)"
         id="underscore-bg-transform"
         style="font-style:normal;font-weight:normal;font-size:11.86558533px;line-height:1.25;font-family:sans-serif;letter-spacing:0px;word-spacing:0px;fill:#212121;fill-opacity:1;stroke:none;stroke-width:0.29663962"
         aria-label="#_">
        <path
           style="font-style:normal;font-variant:normal;font-weight:normal;font-stretch:normal;font-family:Audiowide;-inkscape-font-specification:Audiowide;fill:#212121;fill-opacity:1;stroke-width:1.12115765"
           d="m 11.105469,61.589844 -2.0000002,2 H 34.134766 l -1.132813,5.103515 2,-2 1.132813,-5.103515 z"
           transform="matrix(0.26458333,0,0.05865671,0.26458333,38.769454,29.35564)"
           id="underscore-bg"
           inkscape:connector-curvature="0" />
      </g>
    </g>
    <g
       id="root-3"
       transform="matrix(44.034971,0,0,47.48617,-1160.6081,-1968.5414)" />
  </g>
  <animate
     xlink:href="#root"
     dur="12s"
     begin="0s" />
</svg>
