<svg width="32" height="32" version="1.1" xmlns="http://www.w3.org/2000/svg">
  <path d="m12.565 0c-1.8292 0-1.7835 0.068571-1.2118 2.3543l3.7041 11.36h-10.289l-2.7895-4.0686c-0.32011-0.48-0.27438-0.50286-0.7774-0.50286h-0.50303c-0.98312 0-0.64021 0.98286-0.64021 0.98286l0.64021 5.8743-0.64021 5.8514s-0.32004 1.0057 0.57162 1.0057h0.57162c0.48016 0 0.4573-0.02286 0.7774-0.50286l2.7895-4.0686h10.289l-3.7041 11.269c-0.61735 2.4-0.61735 2.4457 1.2118 2.4457 0.98319 0 0.98319-0.04571 1.6463-1.1429l8.4142-12.571h7.0881c1.2576 0 2.2865-1.0286 2.2865-2.2857 0-1.28-1.0289-2.2857-2.2865-2.2857h-7.0881l-8.4142-12.571c-0.61735-1.0514-0.66308-1.1429-1.5091-1.1429z" fill="#fff"/>
</svg>
