<svg width="32" height="32" version="1.1" xmlns="http://www.w3.org/2000/svg">
  <path d="m16 0-4.8132 5.011h-6.1758v6.1758l-5.011 4.8132 5.011 4.8791v6.1099h6.1758l4.8132 5.011 4.8791-5.011h6.1099v-6.1099l5.011-4.8791-5.011-4.3956v-6.5934h-6.1099zm0 7.2088c4.8571 0 8.7912 3.9341 8.7912 8.7912s-3.9341 8.7912-8.7912 8.7912-8.7912-3.9341-8.7912-8.7912 3.9341-8.7912 8.7912-8.7912zm0 2.1978c-3.6415 0-6.5934 2.9519-6.5934 6.5934s2.9519 6.5934 6.5934 6.5934 6.5934-2.9519 6.5934-6.5934-2.9519-6.5934-6.5934-6.5934z" fill="#fff"/>
</svg>
