<svg width="500" height="500" version="1.1" xmlns="http://www.w3.org/2000/svg">
  <path d="m333 500h-323.02c-5.4423 0-9.9774-4.4218-9.9774-9.9772 0-63.832 6.1225-102.15 35.374-131.41 27.551-27.664 74.831-45.238 156.8-67.46v-17.914c-27.324-14.172-47.847-48.186-57.371-87.527-5.8958-24.263-7.7099-50.794-4.3084-75.85 3.4014-25.51 12.245-49.66 27.438-68.934 19.615-24.717 49.661-40.93 92.065-40.93s72.45 16.213 92.064 40.93c15.193 19.274 24.036 43.424 27.438 68.934 3.4014 25.057 1.5873 51.587-4.3084 75.85-9.5239 39.342-30.045 73.356-57.371 87.527v17.914c81.974 22.222 129.25 39.796 156.8 67.46 29.252 29.252 35.374 67.574 35.374 131.41 0 5.5556-4.5352 9.9772-9.9774 9.9772zm-312.93-19.955h459.87c-0.56688-52.381-6.4627-84.466-29.478-107.37-25.17-25.283-71.883-41.95-154.65-64.172-4.5352-0.90703-7.9366-4.8753-7.9366-9.7505v-31.859c0-3.9682 2.381-7.823 6.3493-9.2969 24.036-9.4103 42.744-40.136 51.588-76.53 5.3289-21.995 7.0296-45.918 3.9684-68.594-2.9478-22.109-10.431-42.857-23.356-59.07-15.986-20.181-40.816-33.447-76.418-33.447s-60.432 13.265-76.418 33.447c-12.925 16.213-20.408 36.961-23.356 59.07-3.0612 22.676-1.3605 46.599 3.9684 68.594 8.7303 36.168 27.324 66.667 51.135 76.304 3.9682 1.3605 6.8028 5.102 6.8028 9.5237v31.859c0 4.4218-2.9479 8.5033-7.3697 9.6371-83.108 22.336-129.93 39.002-155.22 64.286-23.016 22.902-28.912 54.989-29.478 107.37z" fill="#fff"/>
</svg>
