<svg width="32" height="32" version="1.1" xmlns="http://www.w3.org/2000/svg">
  <path d="m16 0c-5.1707 0-9.3333 4.0777-9.3333 9.1429v4.5714h-2.3333c-1.2927 0-2.3333 1.0194-2.3333 2.2857v13.714c0 1.2663 1.0407 2.2857 2.3333 2.2857h23.333c1.2927 0 2.3333-1.0194 2.3333-2.2857v-13.714c0-1.2663-1.0407-2.2857-2.3333-2.2857h-2.3333v-4.5714c0-5.0651-4.1627-9.1429-9.3333-9.1429zm0 4.5714c2.5853 0 4.6667 2.0389 4.6667 4.5714v4.5714h-9.3333v-4.5714c0-2.5326 2.0813-4.5714 4.6667-4.5714z" fill="#fff"/>
</svg>
