<svg width="32" height="32" version="1.1" xmlns="http://www.w3.org/2000/svg">
  <path transform="matrix(.23487 0 0 .23709 -317.29 -29.082)" d="m1406 122.67c-5.8374 0.0799-10.504 4.6855-10.553 10.33-0.05 4.1734 0 8.3463 0 12.52v37.768c0 0.85166 0.3918 1.681 1.009 2.2828l-0.07-0.0281c0.1053 0.0932 0.2218 0.1684 0.3357 0.24779 0.5653 0.44976 1.2656 0.7299 2.0224 0.69593l-0.1006-0.0404c0.8664 0.033 1.7367-0.25095 2.4094-0.9033 2.457-2.3825 4.8975-4.7648 7.3545-7.1473 5.1777-5.0368 10.372-10.074 15.55-15.127l14-13.623 3.3799-3.2775c0.7585-0.73553 1.2367-1.5988 1.2532-2.6862 0.033-1.2792 0-2.5431 0-3.8223v-5.3407c0-1.4871 0.034-2.9579-0.3952-4.397-0.9729-3.2939-3.579-5.8046-6.8605-6.9399-1.2697-0.43172-2.6379-0.5114-3.9736-0.5114h-19.606c-1.9128 0-3.8418-0.032-5.7546 0zm55.513 22.063c-1.1179-0.0147-2.2337 0.37697-3.1082 1.2196l-2.2768 2.2082-6.1937 6.0059-9.1519 8.8739-11.132 10.795-5.2963 5.1368c-5.226 4.5586-10.742 10.055-15.41 14.942l-3.8236 3.7081-11.506 11.157-9.6907 9.3976-6.9739 6.7624c-1.1 1.0667-2.2223 2.1334-3.3113 3.2108l-0.1427 0.13883c-1.628 1.5787-1.749 4.4802 0 6.0375 1.76 1.568 4.4876 1.6853 6.2256 0l2.2768-2.2082 5.4738-5.3073c5.2325 3.3067 11.53 5.0387 17.77 5.0701h7.2218v12.936h-14.972c-2.325 0-4.6498-0.032-6.9583 0h-0.099c-3.4464 0-6.7611 2.9422-6.5962 6.396 0.1649 3.4698 2.9025 6.396 6.5962 6.396h50.227c2.325 0 4.6498 0.032 6.9583 0h0.099c3.4464 0 6.7611-2.9422 6.5962-6.396-0.1649-3.4698-2.9025-6.396-6.5962-6.396h-22.062v-12.936h3.4623c1.5665 0 3.1498 0.0322 4.7163-0.0158 5.6725-0.19188 11.345-1.7585 16.193-4.6527 9.7124-5.8203 15.814-16.214 15.863-27.311 0.016-4.8449 0-9.6906 0-14.52v-0.5114c0-3.3419-3.0344-6.5559-6.5961-6.396-3.5783 0.14391-6.5952 2.7985-6.5952 6.3802v14.247c0 1.1218-0.053 2.2409-0.1638 3.354-0.2881 1.6148-0.7283 3.1935-1.3263 4.7309-0.7365 1.5627-1.6254 3.0408-2.6656 4.4286-1.0609 1.2343-2.2299 2.3758-3.507 3.4093-1.4365 1.0097-2.9669 1.8844-4.5856 2.6062-1.5749 0.57137-3.1916 1.0044-4.8453 1.2882-1.5087 0.14387-3.0191 0.16959-4.5417 0.16959h-11.78c-0.076 3.6e-4 -0.1477-0.0192-0.2241-0.0158-0.041 2e-3 -0.079 0.0134-0.1189 0.0158h-10.962c-1.7888 0-3.5778 0.0126-5.3667-0.1441-1.6557-0.27221-3.2792-0.69193-4.8499-1.2557-0.2013-0.0883-0.3977-0.18554-0.5964-0.27855l0.1784-0.17222 7.9847-7.743h24.977c2.4899 0 4.8978-0.12831 7.1239-1.4235 3.4464-1.9987 5.2417-5.5324 5.2104-9.3379l-0.2077-25.217 2.0801-2.0175 9.6907-9.3976 6.9739-6.7624c1.1-1.0667 2.2223-2.1334 3.3113-3.2108l0.1427-0.13883c1.628-1.5787 1.749-4.4802 0-6.0375-0.88-0.784-1.9995-1.205-3.1174-1.2196zm-82.688 33.726c-3.5782 0.1599-6.5961 2.8143-6.5961 6.396v15.03c0 3.3419 3.0343 6.5559 6.5961 6.396 3.5783-0.1599 6.5952-2.8143 6.5952-6.396v-15.03c0-3.3419-3.0334-6.5559-6.5952-6.396z" fill="#fff"/>
</svg>
