<svg width="32" height="32" version="1.1" xmlns="http://www.w3.org/2000/svg">
  <path transform="matrix(.038739 0 0 .037911 -3.8209 -3.393)" d="m437.18 89.5c-17 0-32.176 4.5012-45.476 15.301-14.6 12-22.588 30.604-22.688 49.304-0.1 11.2 0 22.39 0 33.59v161.82 170.99 43.791c0 7.7 0.37295 15.474 2.7729 22.874 8.6 26.7 33.107 44.937 61.207 45.337 47.5 0.7 94.979 0 142.48 0h15.529c28.3-0.4 53.71-19.225 61.61-46.625 2.1-7.1 2.3696-14.496 2.3696-21.896v-44.203-170.79-161.92c0-11 0.1-21.972 0-32.972-0.1-21.1-9.9708-39.795-26.671-52.395-12.2-9.2-26.796-12.21-41.796-12.21h-149.34zm318.44 348.78c-21.3 1.2-39.628 17.836-39.628 40.236v89.077c0 7.1329-0.36073 14.253-1.0588 21.329-1.7437 9.9505-4.3448 19.68-7.9155 29.16-4.4644 9.7828-9.8748 19.03-16.184 27.717-6.444 7.7367-13.515 14.904-21.276 21.38-8.7885 6.3725-18.169 11.844-28.082 16.383-9.4788 3.5305-19.192 6.2257-29.141 7.9855-9.2419 0.90165-18.504 1.0304-27.83 1.0304h-42.3-28.889c-0.44428 0.0028-0.8637-0.12374-1.3108-0.10304-0.25753 0.01187-0.49971 0.08679-0.75626 0.10304h-68.063c-10.083 0-20.089 0.10684-30.15-0.77279-10.462-1.7246-20.707-4.4081-30.654-8.14-9.8976-4.5039-19.254-9.9416-28.032-16.332-7.726-6.4473-14.861-13.566-21.326-21.329-6.3188-8.7322-11.774-18.031-16.285-27.872-3.6516-9.7918-6.3579-19.846-8.1172-30.139-1.2031-12.977-0.90751-26.06-0.90751-39v-56.413-14.065c0-20.9-18.431-41.03-40.031-40.03-21.7 1-39.981 17.63-39.981 40.03v65.996c0 30.4-0.1182 60.598 9.8818 89.798 15.8 46.3 47.343 86.172 89.743 110.97 32 18.7 68.069 27.202 104.97 27.202h39.729v80.988h-3.9326-86.869c-14.1 0-28.199-0.2-42.199 0h-0.605c-20.9 0-41.031 18.43-40.031 40.03 1 21.7 17.631 39.979 40.031 39.979h34.586 82.583 100.53 86.869c14.1 0 28.199 0.2 42.199 0h0.60501c20.9 0 41.031-18.379 40.031-39.979-1-21.7-17.631-40.03-40.031-40.03h-34.586-82.583-16.638v-80.988h28.334c27.9 0 55.88-1.6948 82.18-11.695 24.7-9.4 46.298-22.012 66.198-39.412 16.7-14.5 30.995-32.583 41.695-51.983 11.2-20.2 19.185-42.481 22.385-65.481 1.9-14 2.8234-27.734 2.8234-41.834v-77.588-6.1823c0-20.9-18.381-41.03-39.981-40.03z" fill="#fff"/>
</svg>
