<?xml version="1.0" encoding="UTF-8" standalone="no"?>
<svg
   width="32"
   height="32"
   version="1.1"
   id="svg1"
   sodipodi:docname="microphone.svg"
   xmlns:sodipodi="http://sodipodi.sourceforge.net/DTD/sodipodi-0.dtd"
   xmlns="http://www.w3.org/2000/svg"
   xmlns:svg="http://www.w3.org/2000/svg">
  <path
     style="fill:#ffffff;stroke-width:2"
     d="m 16,0 c -3.32,0 -6,2.68 -6,6 v 10 c 0,3.32 2.68,6 6,6 3.32,0 6,-2.68 6,-6 V 6 C 22,2.68 19.32,0 16,0 Z M 4,14 v 2 c 0,5.94 4.32,10.86 10,11.82 V 32 h 4 V 27.82 C 23.68,26.86 28,21.94 28,16 v -2 h -4 v 2 c 0,4.46 -3.54,8 -8,8 -4.46,0 -8,-3.54 -8,-8 v -2 z"
     id="path1" />
</svg>
