<svg width="32" height="32" version="1.1" xmlns="http://www.w3.org/2000/svg">
  <path d="m22 20v2c0 0.56 0.2 1.08 0.56 1.44l1.56 1.56-1.56 1.56c-0.36 0.38-0.56 0.9-0.56 1.44v2h2c0.56 0 1.08-0.2 1.44-0.56l1.56-1.56 1.56 1.56c0.36 0.36 0.9 0.56 1.44 0.56h2v-2c0-0.54-0.2-1.06-0.56-1.44l-1.56-1.56 1.56-1.56c0.36-0.36 0.56-0.88 0.56-1.44v-2h-2c-0.54 0-1.08 0.2-1.44 0.56l-1.56 1.58-1.56-1.58c-0.36-0.36-0.88-0.56-1.44-0.56z" fill="#fff"/>
  <path d="m16 2c-6.1012 0-11.839 2.1464-16 6l16 22 4.0391-5.5547s-0.03906-4.9639-0.03906-6.4453h5.2734l6.7266-10c-4.162-3.8538-9.898-6-16-6z" fill="#fff" opacity=".3"/>
</svg>
