<svg width="32" height="32" version="1.1" xmlns="http://www.w3.org/2000/svg">
  <g transform="translate(30,27.85)" fill="#fff">
    <path d="m-27.714-25.6s-2.2857 0-2.2857 2.2917v20.625c0 2.2917 2.2857 2.2917 2.2857 2.2917h4.5714l2.2857 2.2917h9.2952v-4.5833h-7.0095l-2.2857-2.2917h-4.5714v-16.042h22.857v9.4531h4.5714v-11.745c0-2.2917-2.2857-2.2917-2.2857-2.2917z" opacity=".5" stroke-width="2.2887"/>
    <path d="m-9.7333-9.9164v2.3633c0 0.63809 0.23467 1.2525 0.65707 1.7016l1.8304 1.8434-1.8304 1.8434c-0.4224 0.42539-0.65707 1.0398-0.65707 1.7016v2.3633h2.3467c0.65707 0 1.2672-0.23633 1.6896-0.66172l1.8304-1.867 1.8304 1.867c0.4224 0.42539 1.0325 0.66172 1.6896 0.66172h2.3467v-2.3633c0-0.66172-0.23467-1.2762-0.65707-1.7016l-1.8304-1.8434 1.8304-1.8434c0.4224-0.44902 0.65707-1.0635 0.65707-1.7016v-2.3633h-2.3467c-0.65707 0-1.2672 0.23633-1.6896 0.66172l-1.8304 1.8434-1.8304-1.8434c-0.4224-0.42539-1.0325-0.66172-1.6896-0.66172z" stroke-width="2.355"/>
  </g>
</svg>
