<svg width="32" height="32" version="1.1" xmlns="http://www.w3.org/2000/svg">
  <path d="m16 0c1.1786 0 2.1429 0.96 2.1429 2.1333 0 0.064 0 0.14933-0.02143 0.21333 4.9071 0.98133 8.5929 5.2693 8.5929 10.453v9.6l4.2857 4.2667v1.0667h-30v-1.0667l4.2857-4.2667v-9.6c0-5.184 3.6857-9.472 8.5929-10.453-0.02143-0.064-0.02143-0.14933-0.02143-0.21333 2e-6 -1.1733 0.96429-2.1333 2.1429-2.1333zm3.7071 29.867c-0.77143 1.3227-2.1857 2.1333-3.7071 2.1333-1.5214 0-2.9357-0.81067-3.7071-2.1333z" fill="#fff"/>
</svg>
