<svg width="32" height="32" version="1.1" xmlns="http://www.w3.org/2000/svg">
  <g transform="matrix(2.5 0 0 2.4615 -4 -2.4615)" fill="#fff">
    <path d="m8 1c0.554 0 1 0.446 1 1v5c0 0.554-0.446 1-1 1s-1-0.446-1-1v-5c0-0.554 0.446-1 1-1z"/>
    <path d="m 11,3 c -0.552,0 -1,0.4477 -1,1 0,0.2839 0.102,0.5767 0.329,0.748 C 11.358,5.525 11.998,6.7108 12,8 12,10.209 10.209,12 8,12 5.7909,12 4,10.209 4,8 4.0024,6.7105 4.644,5.5253 5.6719,4.7471 5.8981,4.5759 5.9994,4.2833 6,4 6,3.4477 5.5523,3 5,3 4.7151,3 4.4724,3.1511 4.2539,3.334 2.8611,4.4998 2.0063,6.1837 2,8 c 0,3.314 2.6863,6 6,6 3.314,0 6,-2.686 6,-6 C 13.996,6.1678 13.137,4.4602 11.714,3.2998 11.504,3.1282 11.267,3 11,3 Z"/>
    <path d="m8 1c0.554 0 1 0.446 1 1v5c0 0.554-0.446 1-1 1s-1-0.446-1-1v-5c0-0.554 0.446-1 1-1z"/>
    <path d="m 11,3 c -0.552,0 -1,0.4477 -1,1 0,0.2839 0.102,0.5767 0.329,0.748 C 11.358,5.525 11.998,6.7108 12,8 12,10.209 10.209,12 8,12 5.7909,12 4,10.209 4,8 4.0024,6.7105 4.644,5.5253 5.6719,4.7471 5.8981,4.5759 5.9994,4.2833 6,4 6,3.4477 5.5523,3 5,3 4.7151,3 4.4724,3.1511 4.2539,3.334 2.8611,4.4998 2.0063,6.1837 2,8 c 0,3.314 2.6863,6 6,6 3.314,0 6,-2.686 6,-6 C 13.996,6.1678 13.137,4.4602 11.714,3.2998 11.504,3.1282 11.267,3 11,3 Z"/>
  </g>
</svg>
