<svg width="32" height="32" version="1.1" xmlns="http://www.w3.org/2000/svg">
  <path d="m3.1875 0-3.1875 3.1875 5.957 5.957h-5.957v13.713h6.6211l8.8281 9.1426v-13.363l8.0234 8.0234c-1.085 0.82712-2.2992 1.4793-3.6094 1.9121v3.4277c2.2-0.56421 4.2204-1.599 5.957-2.9922l2.9922 2.9922 3.1875-3.1875zm12.262 0-3.0762 3.1855 3.0762 3.0762zm4.4141 0v3.4297c5.12 1.6914 8.8262 6.696 8.8262 12.57 0 1.0814-0.12631 2.1334-0.36328 3.1406l2.6562 2.6562c0.65554-1.8002 1.0176-3.7525 1.0176-5.7969 0-7.7714-5.185-14.217-12.137-16zm0 9.1445v1.5312l3.8027 3.8027c-0.439-2.3091-1.8563-4.2412-3.8027-5.334z" fill="#fff"/>
</svg>
