<svg width="32" height="32" version="1.1" viewBox="0 0 32 32" xmlns="http://www.w3.org/2000/svg">
  <path d="m16 0a16 16 0 0 0-16 16 16 16 0 0 0 16 16 16 16 0 0 0 16-16 16 16 0 0 0-16-16zm0 4.9531c0.78004 0.017687 1.4435 0.2832 1.9922 0.79688 0.50491 0.54044 0.76702 1.1991 0.78516 1.9785-0.01814 0.77944-0.28025 1.4228-0.78516 1.9277-0.54875 0.56689-1.2122 0.84961-1.9922 0.84961s-1.4209-0.28272-1.9258-0.84961c-0.56689-0.50491-0.85156-1.1483-0.85156-1.9277s0.28466-1.4381 0.85156-1.9785c0.50491-0.51368 1.1458-0.77918 1.9258-0.79688zm-2.4727 8.1309h4.957v13.965h-4.957v-13.965z" fill="#4682b4"/>
</svg>
